<svg xmlns="http://www.w3.org/2000/svg" width="64" height="64" viewBox="0 0 64 64">
  <defs>
    <linearGradient id="rh-grad" x1="0" y1="0" x2="1" y2="1">
      <stop offset="0" stop-color="#1e4d5e"/>
      <stop offset="1" stop-color="#2c7889"/>
    </linearGradient>
  </defs>
  <rect width="64" height="64" rx="14" fill="url(#rh-grad)"/>
  <path d="M32 10c1.5 10 4 12.5 14 14-10 1.5-12.5 4-14 14-1.5-10-4-12.5-14-14 10-1.5 12.5-4 14-14z" fill="#fbf8f1"/>
  <path d="M48 40c.7 4 1.6 4.9 5.5 5.5-3.9.6-4.8 1.5-5.5 5.5-.6-4-1.5-4.9-5.5-5.5 4-.6 4.9-1.5 5.5-5.5z" fill="#fbf8f1" opacity="0.95"/>
</svg>
